# xmcd
#
# Track frame offsets:
#	150
#	11947
#	24907
#	37660
#	49868
#	61867
#	73816
#	86461
#	99766
#	113403
#	125376
#	138544
#	151279
#	163289
#	175993
#	189157
#	199526
#	211176
#	224410
#	235648
#	249416
#	262519
#	274591
#	286813
#	300123
#	313827
#	325159
#	336804
#
# Disc length: 4654 seconds
#
# Revision: 1
# Processed by: cddbd v1.5.2PL0 Copyright (c) Steve Scherf et al.
# Submitted via: audiograbber 1.83.01
#
DISCID=6e122c1c
DTITLE=Various Artist - Western Swingin' [CD1]
DYEAR=2011
DGENRE=Country
TTITLE0=Bob Wills And His Texas Playboys - Steel Guitar Rag
TTITLE1=Spade Cooley And His Orchestra - Shame On You
TTITLE2=Al Dexter And His Troopers - Pistol-Packin' Mama
TTITLE3=Bob Wills And His Texas Playboys - Take Me Back To Tulsa
TTITLE4=Bob Wills And His Texas Playboys - Big Beaver
TTITLE5=Floyd Tillman - Drivin' Nails In My Coffin
TTITLE6=Bob Wills And His Texas Playboys - Stay A Little Longer
TTITLE7=Tex Williams And His Western Caravan - Never Trust A Woman
TTITLE8=Pee Wee King And His Golden West Cowboys - Tennessee Waltz
TTITLE9=Bob Wills And His Texas Playboys - Roly Poly
TTITLE10=Bob Wills And His Texas Playboys - Faded Love
TTITLE11=Leon McAuliffe And His Western Swing Band - Panhandle Rag
TTITLE12=Spade Cooley And His Orchestra - Crazy 'Cause I Love You
TTITLE13=Milton Brown And His Brownies - Taking Off
TTITLE14=Johnnie Lee Wills And His Boys - Rag Mop
TTITLE15=Bob Wills And His Texas Playboys - Sugar Moon
TTITLE16=Bob Wills And His Texas Playboys - New Spanish Two-Step
TTITLE17=Moon Mullican And The Showboys - The Lonesome Hearted Blues
TTITLE18=Milton Brown And His Brownies - Get Along, Cindy
TTITLE19=Merle Travis - Divorce Me C.O.D.
TTITLE20=Hank Penny - Steel Guitar Stomp
TTITLE21=Bob Wills And His Texas Playboys - New San Antonio Rose
TTITLE22=Spade Cooley And His Orchestra - Detour
TTITLE23=Tex Williams And His Western Caravan - Smoke! Smoke! Smoke!
TTITLE24=Bob Wills And His Texas Playboys - Cherokee Maiden
TTITLE25=Hoyle Nix - A Big Ball's In Cowtown
TTITLE26=Pee Wee King And His Golden West Cowboys - Rootie Tootie
TTITLE27=Leon McAuliffe - Take It Away, Leon
EXTD=
EXTT0=
EXTT1=
EXTT2=
EXTT3=
EXTT4=
EXTT5=
EXTT6=
EXTT7=
EXTT8=
EXTT9=
EXTT10=
EXTT11=
EXTT12=
EXTT13=
EXTT14=
EXTT15=
EXTT16=
EXTT17=
EXTT18=
EXTT19=
EXTT20=
EXTT21=
EXTT22=
EXTT23=
EXTT24=
EXTT25=
EXTT26=
EXTT27=
PLAYORDER=
